<svg viewBox="0 0 19.9197 19.9218" xmlns="http://www.w3.org/2000/svg" aria-hidden="true" focusable="false" class="sf-symbol">
 <g>
  <rect height="19.9218" opacity="0" width="19.9197" x="0" y="0" />
  <path d="M9.95469 18.8881L9.95469 1.0213C4.88288 1.0213 1.03165 4.88288 1.03165 9.95469C1.03165 15.0265 4.88288 18.8881 9.95469 18.8881ZM9.95469 19.9094C15.4553 19.9094 19.9197 15.4553 19.9197 9.95469C19.9197 4.45408 15.4553 0 9.95469 0C4.46443 0 4.44089e-16 4.45408 4.44089e-16 9.95469C4.44089e-16 15.4553 4.46443 19.9094 9.95469 19.9094ZM9.95469 18.2559C5.36575 18.2559 1.66174 14.5436 1.66174 9.95469C1.66174 5.36575 5.36575 1.6535 9.95469 1.6535C14.5436 1.6535 18.2559 5.36575 18.2559 9.95469C18.2559 14.5436 14.5436 18.2559 9.95469 18.2559Z" fill="currentColor" fill-opacity="0.85" />
 </g>
</svg>